<?xml version="1.0" encoding="UTF-8" standalone="no"?>
<!-- Created with Inkscape (http://www.inkscape.org/) -->

<svg
   width="600mm"
   height="180mm"
   viewBox="0 0 600 179.99999"
   version="1.1"
   id="svg988"
   inkscape:version="1.1.1 (c3084ef, 2021-09-22)"
   sodipodi:docname="Icons.svg"
   xmlns:inkscape="http://www.inkscape.org/namespaces/inkscape"
   xmlns:sodipodi="http://sodipodi.sourceforge.net/DTD/sodipodi-0.dtd"
   xmlns="http://www.w3.org/2000/svg"
   xmlns:svg="http://www.w3.org/2000/svg">
  <sodipodi:namedview
     id="namedview990"
     pagecolor="#ffffff"
     bordercolor="#666666"
     borderopacity="1.0"
     inkscape:pageshadow="2"
     inkscape:pageopacity="0"
     inkscape:pagecheckerboard="true"
     inkscape:document-units="mm"
     showgrid="false"
     inkscape:zoom="0.2207099"
     inkscape:cx="1139.5049"
     inkscape:cy="-29.450424"
     inkscape:window-width="1440"
     inkscape:window-height="765"
     inkscape:window-x="0"
     inkscape:window-y="25"
     inkscape:window-maximized="1"
     inkscape:current-layer="layer1"
     scale-x="1" />
  <defs
     id="defs985" />
  <g
     inkscape:label="Calque 1"
     inkscape:groupmode="layer"
     id="layer1">
    <g
       id="use920"
       transform="matrix(7.2034466,0,0,7.2034466,-14.181296,9.6430379)"
       style="fill:#b4b0ff;fill-opacity:1">
      <g
         id="g1075"
         style="fill:#b4b0ff;fill-opacity:1">
        <path
           d="M 20.54,5.23 19.15,3.55 C 18.88,3.21 18.47,3 18,3 H 6 C 5.53,3 5.12,3.21 4.84,3.55 L 3.46,5.23 C 3.17,5.57 3,6.02 3,6.5 V 19 c 0,1.1 0.9,2 2,2 h 14 c 1.1,0 2,-0.9 2,-2 V 6.5 C 21,6.02 20.83,5.57 20.54,5.23 Z M 12,17.5 6.5,12 H 10 v -2 h 4 v 2 h 3.5 z M 5.12,5 5.93,4 h 12 l 0.94,1 z"
           id="path1073"
           style="fill:#b4b0ff;fill-opacity:1" />
      </g>
    </g>
    <g
       id="use828"
       transform="matrix(8.1038774,0,0,8.1038774,194.6609,-1.4984172)"
       style="fill:#fff2a4;fill-opacity:1">
      <g
         id="g1188"
         style="fill:#fff2a4;fill-opacity:1">
        <path
           d="M 4.59,6.89 C 5.29,6.18 5.99,5.54 6.3,5.67 6.8,5.87 6.3,6.7 6,7.19 5.75,7.61 3.14,11.08 3.14,13.5 c 0,1.28 0.48,2.34 1.34,2.98 0.75,0.56 1.74,0.73 2.64,0.46 1.07,-0.31 1.95,-1.4 3.06,-2.77 1.21,-1.49 2.83,-3.44 4.08,-3.44 1.63,0 1.65,1.01 1.76,1.79 -3.78,0.64 -5.38,3.67 -5.38,5.37 0,1.7 1.44,3.09 3.21,3.09 1.63,0 4.29,-1.33 4.69,-6.1 H 21 v -2.5 h -2.47 c -0.15,-1.65 -1.09,-4.2 -4.03,-4.2 -2.25,0 -4.18,1.91 -4.94,2.84 C 8.98,11.75 7.5,13.5 7.27,13.74 7.02,14.04 6.59,14.58 6.16,14.58 5.71,14.58 5.44,13.75 5.8,12.66 6.15,11.57 7.2,9.8 7.65,9.14 8.43,8 8.95,7.22 8.95,5.86 8.95,3.69 7.31,3 6.44,3 5.12,3 3.97,4 3.72,4.25 3.36,4.61 3.06,4.91 2.84,5.18 Z m 9.29,11.66 c -0.31,0 -0.74,-0.26 -0.74,-0.72 0,-0.6 0.73,-2.2 2.87,-2.76 -0.3,2.69 -1.43,3.48 -2.13,3.48 z"
           id="path1186"
           style="fill:#fff2a4;fill-opacity:1" />
      </g>
    </g>
    <g
       id="use1279"
       transform="matrix(7.2754811,0,0,7.2754811,425.29428,9.9709543)"
       style="fill:#ffb8da;fill-opacity:1">
      <g
         id="g1609"
         style="fill:#ffb8da;fill-opacity:1">
        <path
           d="M 1,21 H 5 V 9 H 1 Z M 23,10 C 23,8.9 22.1,8 21,8 H 14.69 L 15.64,3.43 15.67,3.11 C 15.67,2.7 15.5,2.32 15.23,2.05 L 14.17,1 7.59,7.59 C 7.22,7.95 7,8.45 7,9 v 10 c 0,1.1 0.9,2 2,2 h 9 c 0.83,0 1.54,-0.5 1.84,-1.22 l 3.02,-7.05 C 22.95,12.5 23,12.26 23,12 v -1.91 l -0.01,-0.01 z"
           id="path1607"
           style="fill:#ffb8da;fill-opacity:1" />
      </g>
    </g>
  </g>
</svg>
